# Blender v2.80 (sub 45) OBJ File: 'apple.blend'
# www.blender.org
mtllib apple.mtl
o apple_Cylinder
v -0.000000 -0.042236 0.196106
v 0.000000 -0.049408 0.106810
v -0.138668 -0.042236 0.138668
v -0.075526 -0.049408 0.075526
v -0.196106 -0.042236 -0.000000
v -0.106810 -0.049408 -0.000000
v -0.138668 -0.042236 -0.138668
v -0.075526 -0.049408 -0.075526
v 0.000000 -0.042236 -0.196106
v 0.000000 -0.049408 -0.106810
v 0.138668 -0.042236 -0.138668
v 0.075526 -0.049408 -0.075526
v 0.196106 -0.042236 0.000000
v 0.106810 -0.049408 0.000000
v 0.138668 -0.042236 0.138668
v 0.075526 -0.049408 0.075526
v -0.000000 0.052110 0.361499
v -0.255618 0.052110 0.255618
v -0.361499 0.052110 -0.000000
v -0.255618 0.052110 -0.255618
v 0.000000 0.052110 -0.361499
v 0.255618 0.052110 -0.255618
v 0.361499 0.052110 0.000000
v 0.255618 0.052110 0.255618
v -0.000000 0.254037 0.487076
v -0.344415 0.254037 0.344415
v -0.487076 0.254037 -0.000000
v -0.344415 0.254037 -0.344415
v 0.000000 0.254037 -0.487076
v 0.344415 0.254037 -0.344415
v 0.487076 0.254037 0.000000
v 0.344415 0.254037 0.344415
v -0.000000 0.709306 0.410814
v -0.290489 0.709306 0.290489
v -0.410814 0.709306 -0.000000
v -0.290489 0.709306 -0.290489
v 0.000000 0.709306 -0.410814
v 0.290490 0.709306 -0.290489
v 0.410814 0.709306 0.000000
v 0.290490 0.709306 0.290489
v 0.000000 0.778361 0.042345
v -0.029942 0.778361 0.029942
v -0.042345 0.778361 -0.000000
v -0.029942 0.778361 -0.029942
v 0.000000 0.778361 -0.042345
v 0.029942 0.778361 -0.029942
v 0.042345 0.778361 0.000000
v 0.029942 0.778361 0.029942
v 0.348623 0.535458 0.348623
v 0.493028 0.535458 0.000000
v 0.348623 0.535458 -0.348623
v 0.000000 0.535458 -0.493028
v -0.348623 0.535458 -0.348623
v -0.493028 0.535458 -0.000000
v -0.348623 0.535458 0.348623
v -0.000000 0.535458 0.493028
v -0.000000 0.801014 0.212441
v -0.150219 0.801014 0.150219
v -0.212441 0.801014 -0.000000
v -0.150219 0.801014 -0.150219
v 0.000000 0.801014 -0.212441
v 0.150219 0.801014 -0.150219
v 0.212441 0.801014 0.000000
v 0.150219 0.801014 0.150219
v 0.000000 0.778361 0.168623
v -0.119235 0.778361 0.119235
v -0.168623 0.778361 -0.000000
v -0.119235 0.778361 -0.119235
v 0.000000 0.778361 -0.168623
v 0.119235 0.778361 -0.119235
v 0.168623 0.778361 0.000000
v 0.119235 0.778361 0.119235
v 0.012230 0.939120 0.037576
v -0.009230 0.954787 0.026570
v -0.018118 0.961276 -0.000000
v -0.009230 0.954787 -0.026570
v 0.012230 0.939120 -0.037576
v 0.033690 0.923453 -0.026570
v 0.042579 0.916964 0.000000
v 0.033690 0.923453 0.026570
v 0.098306 1.058022 0.022436
v 0.085493 1.067376 0.015864
v 0.080185 1.071251 -0.000000
v 0.085493 1.067376 -0.015864
v 0.098306 1.058022 -0.022436
v 0.111119 1.048668 -0.015864
v 0.116426 1.044793 0.000000
v 0.111119 1.048668 0.015864
v 0.091095 0.859060 -0.130178
v 0.096485 0.867353 -0.140346
v -0.056173 0.932337 -0.148482
v -0.050782 0.940630 -0.158650
v -0.016796 0.782801 -0.255675
v -0.016506 0.783247 -0.256222
v -0.028604 0.788677 -0.257142
v -0.028314 0.789123 -0.257689
v -0.049063 0.842119 -0.218295
v -0.043673 0.850412 -0.228462
v 0.029603 0.802977 -0.208517
v 0.034993 0.811270 -0.218685
v 0.015281 0.892345 -0.135218
v 0.019396 0.898675 -0.142980
v -0.025286 0.781760 -0.251530
v -0.023707 0.784190 -0.254510
v -0.012316 0.818569 -0.208527
v 0.049893 0.984163 -0.046118
v 0.059408 0.983706 -0.049160
v 0.061546 0.986996 -0.053193
v 0.054761 0.991652 -0.055301
v 0.046718 0.994374 -0.055036
v 0.044580 0.991084 -0.051003
v 0.054118 0.995529 -0.034608
v 0.063633 0.995072 -0.037650
v 0.065771 0.998362 -0.041683
v 0.058986 1.003018 -0.043791
v 0.050943 1.005740 -0.043526
v 0.048805 1.002450 -0.039493
v 0.054388 1.008531 0.015268
v 0.063904 1.008075 0.012226
v 0.066041 1.011364 0.008193
v 0.059256 1.016021 0.006085
v 0.051214 1.018742 0.006350
v 0.049076 1.015453 0.010383
vn -0.0331 -0.9962 0.0800
vn -0.0800 -0.9962 0.0331
vn -0.0800 -0.9962 -0.0331
vn -0.0331 -0.9962 -0.0800
vn 0.0331 -0.9962 -0.0800
vn 0.0800 -0.9962 -0.0331
vn 0.0000 -1.0000 0.0000
vn 0.0800 -0.9962 0.0331
vn 0.0331 -0.9962 0.0800
vn -0.4854 -0.8509 0.2010
vn 0.3318 -0.4982 -0.8011
vn 0.2010 -0.8509 -0.4854
vn 0.2010 -0.8509 0.4854
vn -0.2010 -0.8509 0.4854
vn -0.4854 -0.8509 -0.2010
vn 0.4854 -0.8509 -0.2010
vn -0.2010 -0.8509 -0.4854
vn 0.4854 -0.8509 0.2010
vn 0.8466 0.4004 0.3507
vn -0.8011 -0.4982 -0.3318
vn -0.3318 -0.4982 0.8011
vn 0.3318 -0.4982 0.8011
vn 0.8011 -0.4982 -0.3318
vn -0.3318 -0.4982 -0.8011
vn -0.8011 -0.4982 0.3318
vn 0.8011 -0.4982 0.3318
vn 0.4134 0.8943 -0.1712
vn 0.3507 0.4004 -0.8466
vn -0.8466 0.4004 -0.3507
vn -0.3507 0.4004 0.8466
vn 0.3507 0.4004 0.8466
vn 0.8466 0.4004 -0.3507
vn -0.3507 0.4004 -0.8466
vn -0.8466 0.4004 0.3507
vn 0.9354 -0.0089 -0.3534
vn -0.1712 0.8943 -0.4134
vn -0.4134 0.8943 0.1712
vn 0.4134 0.8943 0.1712
vn 0.1712 0.8943 -0.4134
vn -0.4134 0.8943 -0.1712
vn -0.1712 0.8943 0.4134
vn 0.1712 0.8943 0.4134
vn -0.9237 -0.0195 0.3826
vn -0.3826 -0.0195 -0.9237
vn 0.9237 -0.0195 -0.3826
vn 0.3826 -0.0195 0.9237
vn -0.3826 -0.0195 0.9237
vn -0.9237 -0.0195 -0.3826
vn 0.3826 -0.0195 -0.9237
vn 0.9237 -0.0195 0.3826
vn 0.1869 0.8727 -0.4511
vn 0.4511 0.8727 -0.1869
vn 0.4511 0.8727 0.1869
vn 0.1869 0.8727 0.4511
vn -0.1869 0.8727 0.4511
vn -0.4511 0.8727 0.1869
vn -0.4511 0.8727 -0.1869
vn -0.1869 0.8727 -0.4511
vn 0.0000 1.0000 -0.0000
vn -0.2527 0.3001 -0.9198
vn -0.3982 0.0610 -0.9153
vn -0.9245 0.1190 0.3620
vn 0.9354 -0.0089 0.3534
vn 0.4151 0.0025 -0.9098
vn -0.9245 0.1190 -0.3620
vn -0.3982 0.0610 0.9153
vn 0.4151 0.0025 0.9098
vn 0.5896 0.8077 -0.0000
vn -0.6893 0.6161 0.3811
vn 0.8006 -0.4625 0.3808
vn 0.3645 -0.1468 -0.9196
vn -0.6893 0.6161 -0.3811
vn -0.2527 0.3001 0.9198
vn 0.3645 -0.1468 0.9196
vn 0.8006 -0.4625 -0.3808
vn -0.6521 0.7189 0.2407
vn -0.8840 0.0014 -0.4675
vn -0.2527 -0.6799 -0.6884
vn 0.7524 -0.6461 -0.1281
vn -0.1744 -0.7764 0.6056
vn -0.2938 -0.6339 0.7154
vn 0.6089 -0.7414 -0.2819
vn -0.9229 0.1875 -0.3363
vn -0.4688 -0.5468 0.6937
vn -0.6292 -0.5502 0.5491
vn -0.2527 -0.6798 -0.6884
vn -0.4715 -0.4871 0.7351
vn 0.1994 0.6597 -0.7246
vn -0.8086 -0.2423 0.5361
vn 0.8996 -0.0531 0.4335
vn 0.3013 0.6053 -0.7368
vn -0.2534 -0.5956 0.7623
vn -0.8898 0.4427 -0.1106
vn 0.5964 0.7760 -0.2055
vn 0.1754 -0.7319 0.6584
vn 0.5461 0.4872 -0.6815
vn 0.8898 -0.4427 0.1106
vn 0.2527 0.6798 0.6884
vn -0.8315 -0.5364 0.1443
vn 0.3038 0.9215 -0.2419
vn 0.0342 -0.9671 0.2519
vn 0.4009 0.5794 -0.7096
usemtl None
s off
f 1//1 3//1 4//1 2//1
f 3//2 5//2 6//2 4//2
f 5//3 7//3 8//3 6//3
f 7//4 9//4 10//4 8//4
f 9//5 11//5 12//5 10//5
f 11//6 13//6 14//6 12//6
f 4//7 6//7 8//7 10//7 12//7 14//7 16//7 2//7
f 13//8 15//8 16//8 14//8
f 15//9 1//9 2//9 16//9
f 3//10 18//10 19//10 5//10
f 21//11 29//11 30//11 22//11
f 9//12 21//12 22//12 11//12
f 15//13 24//13 17//13 1//13
f 1//14 17//14 18//14 3//14
f 5//15 19//15 20//15 7//15
f 11//16 22//16 23//16 13//16
f 7//17 20//17 21//17 9//17
f 13//18 23//18 24//18 15//18
f 50//19 39//19 40//19 49//19
f 19//20 27//20 28//20 20//20
f 17//21 25//21 26//21 18//21
f 24//22 32//22 25//22 17//22
f 22//23 30//23 31//23 23//23
f 20//24 28//24 29//24 21//24
f 18//25 26//25 27//25 19//25
f 23//26 31//26 32//26 24//26
f 38//27 62//27 63//27 39//27
f 52//28 37//28 38//28 51//28
f 54//29 35//29 36//29 53//29
f 56//30 33//30 34//30 55//30
f 49//31 40//31 33//31 56//31
f 51//32 38//32 39//32 50//32
f 53//33 36//33 37//33 52//33
f 55//34 34//34 35//34 54//34
f 46//35 78//35 79//35 47//35
f 36//36 60//36 61//36 37//36
f 34//37 58//37 59//37 35//37
f 39//38 63//38 64//38 40//38
f 37//39 61//39 62//39 38//39
f 35//40 59//40 60//40 36//40
f 33//41 57//41 58//41 34//41
f 40//42 64//42 57//42 33//42
f 26//43 55//43 54//43 27//43
f 28//44 53//44 52//44 29//44
f 30//45 51//45 50//45 31//45
f 32//46 49//46 56//46 25//46
f 25//47 56//47 55//47 26//47
f 27//48 54//48 53//48 28//48
f 29//49 52//49 51//49 30//49
f 31//50 50//50 49//50 32//50
f 66//51 58//51 57//51 65//51
f 67//52 59//52 58//52 66//52
f 68//53 60//53 59//53 67//53
f 69//54 61//54 60//54 68//54
f 70//55 62//55 61//55 69//55
f 71//56 63//56 62//56 70//56
f 72//57 64//57 63//57 71//57
f 65//58 57//58 64//58 72//58
f 42//59 66//59 65//59 41//59
f 43//59 67//59 66//59 42//59
f 44//59 68//59 67//59 43//59
f 45//59 69//59 68//59 44//59
f 46//59 70//59 69//59 45//59
f 47//59 71//59 70//59 46//59
f 48//59 72//59 71//59 47//59
f 41//59 65//59 72//59 48//59
f 76//60 84//60 85//60 77//60
f 44//61 76//61 77//61 45//61
f 42//62 74//62 75//62 43//62
f 47//63 79//63 80//63 48//63
f 45//64 77//64 78//64 46//64
f 43//65 75//65 76//65 44//65
f 41//66 73//66 74//66 42//66
f 48//67 80//67 73//67 41//67
f 81//68 88//68 87//68 86//68 85//68 84//68 83//68 82//68
f 74//69 82//69 83//69 75//69
f 79//70 87//70 88//70 80//70
f 77//71 85//71 86//71 78//71
f 75//72 83//72 84//72 76//72
f 73//73 81//73 82//73 74//73
f 80//74 88//74 81//74 73//74
f 78//75 86//75 87//75 79//75
f 92//76 91//76 111//76 110//76
f 97//77 98//77 96//77 95//77
f 103//78 104//78 94//78 93//78
f 99//79 100//79 90//79 89//79
f 105//80 103//80 93//80 99//80
f 101//81 105//81 99//81 89//81
f 93//82 94//82 100//82 99//82
f 91//83 92//83 98//83 97//83
f 91//84 97//84 105//84 101//84
f 97//85 95//85 103//85 105//85
f 95//86 96//86 104//86 103//86
f 91//87 101//87 106//87 111//87
f 109//88 110//88 116//88 115//88
f 111//89 106//89 112//89 117//89
f 89//90 90//90 108//90 107//90
f 90//91 102//91 109//91 108//91
f 101//92 89//92 107//92 106//92
f 116//93 117//93 123//93 122//93
f 114//94 115//94 121//94 120//94
f 106//95 107//95 113//95 112//95
f 108//96 109//96 115//96 114//96
f 110//93 111//93 117//93 116//93
f 107//97 108//97 114//97 113//97
f 118//98 121//98 122//98 123//98
f 119//98 120//98 121//98 118//98
f 113//97 114//97 120//97 119//97
f 117//99 112//99 118//99 123//99
f 115//100 116//100 122//100 121//100
f 112//101 113//101 119//101 118//101
f 102//102 90//102 100//102 94//102 104//102 96//102 98//102 92//102 110//102 109//102
